# xmcd
#
# Track frame offsets:
#	150
#	13033
#	23140
#	35495
#	45640
#	53950
#	63848
#	75815
#	85108
#	96330
#	107648
#	120148
#	127780
#	138495
#	148963
#	158960
#	170865
#	181738
#
# Disc length: 2588 seconds
#
# Revision: 4
# Processed by: cddbd v1.5.2PL0 Copyright (c) Steve Scherf et al.
# Submitted via: audiograbber 1.83.01
#
DISCID=e30a1a12
DTITLE=Johnny Cash (+ track dates) - The Sun Years
DYEAR=1990
DGENRE=Country
TTITLE0=Folsom Prison Blues (1955)
TTITLE1=Hey Porter (1955)
TTITLE2=I Walk the Line (1956)
TTITLE3=Get Rhythm (1956)
TTITLE4=Guess Things Happen That Way (1958)
TTITLE5=Rock Island Line (1957)
TTITLE6=Home of the Blues (1957)
TTITLE7=Luther Played the Boogie (1959)
TTITLE8=Mean Eyed Cat (1959)
TTITLE9=Big River (1957)
TTITLE10=Next in Line (1957)
TTITLE11=Come In Stranger (1958)
TTITLE12=Train of Love (1956)
TTITLE13=There You Go (1956)
TTITLE14=Ballad of a Teenage Queen (1957)
TTITLE15=So Doggone Lonesome (1955)
TTITLE16=The Ways of a Woman in Love (1958)
TTITLE17=Give My Love to Rose (1957)
EXTD=Track dates supplied.
EXTT0=
EXTT1=
EXTT2=
EXTT3=
EXTT4=
EXTT5=
EXTT6=
EXTT7=
EXTT8=
EXTT9=
EXTT10=
EXTT11=
EXTT12=
EXTT13=
EXTT14=
EXTT15=
EXTT16=
EXTT17=
PLAYORDER=
